<svg xmlns="http://www.w3.org/2000/svg" viewBox="0 0 203.67 55.44"><defs><style>.cls-1{fill:#1c0d4f;}</style></defs><title>Power-Wordmark_White_1</title><g id="Layer_2" data-name="Layer 2"><g id="Layer_1-2" data-name="Layer 1"><path class="cls-1" d="M22.55,0H0V54.82H11.82V34.61h0V24.83h0v-15h10c5.49,0,7.84,3.52,7.84,7.52s-2.35,7.52-7.84,7.52H12.71l5,9.78h4.82C34.22,34.61,41,27.33,41,17.31S34.22,0,22.55,0Z"/><path class="cls-1" d="M60.45,14.72c-12.14,0-20.83,8.61-20.83,20.36s8.69,20.36,20.83,20.36,20.83-8.61,20.83-20.36S72.58,14.72,60.45,14.72Zm0,31.32c-5.87,0-9.86-4.46-9.86-11s4-11,9.86-11,9.87,4.47,9.87,11S66.32,46,60.45,46Z"/><path class="cls-1" d="M127.55,15.35,120.9,39.7l-7.05-24.35h-9.94l-7,24.35L90.29,15.35h-11L92.16,54.82h9.48l7.28-24.59,7.2,24.59h9.56l12.76-39.47Z"/><path class="cls-1" d="M164.91,41.42c-.86,3.37-3.76,5.1-8.15,5.1-5.48,0-9-3.45-9.78-9h28.34c.08-.86.16-2,.16-3.53,0-9-5.56-19.26-19.5-19.26-13.39,0-19.5,10.26-19.5,20.28s6.9,20.44,20.28,20.44c9.71,0,17.23-5.48,18.8-14ZM156,22.71a8.15,8.15,0,0,1,8.61,7.91H147.13C148.07,25.14,151.05,22.71,156,22.71Z"/><path class="cls-1" d="M199.2,15.35c-4.77,0-7.75,1.64-9.86,6.58V15.35h-11V54.82h11V35.63c0-6.73,2.43-11.2,7.83-11.2h6.5V15.35Z"/></g></g></svg>