<svg xmlns="http://www.w3.org/2000/svg" viewBox="0 0 181.74 141.54"><defs><style>.cls-1{fill:#1c0d4f;}</style></defs><title>Power-Symbol-Dark</title><g id="Layer_2" data-name="Layer 2"><g id="Layer_1-2" data-name="Layer 1"><path class="cls-1" d="M62.42,87.27H42.48A42.48,42.48,0,0,1,0,44.78V0H30.6A56.67,56.67,0,0,1,87.27,56.67v5.75A24.86,24.86,0,0,1,62.42,87.27Z"/><path class="cls-1" d="M77.81,96.34h0A10.29,10.29,0,0,1,88.1,106.63v0A34.34,34.34,0,0,1,53.76,141h0a10.29,10.29,0,0,1-10.29-10.29v0A34.34,34.34,0,0,1,77.81,96.34Z" transform="translate(-5.72 3.36) rotate(-2.8)"/><path class="cls-1" d="M119.32,87.27h19.93a42.49,42.49,0,0,0,42.49-42.49V0h-30.6A56.67,56.67,0,0,0,94.47,56.67v5.75A24.86,24.86,0,0,0,119.32,87.27Z"/><path class="cls-1" d="M103.93,96.34h0a34.34,34.34,0,0,1,34.34,34.34v0A10.29,10.29,0,0,1,128,141h0a34.34,34.34,0,0,1-34.34-34.34v0A10.29,10.29,0,0,1,103.93,96.34Z" transform="translate(225.96 242.84) rotate(-177.2)"/></g></g></svg>