<svg xmlns="http://www.w3.org/2000/svg" viewBox="0 0 156.29 121.73"><defs><style>.cls-1{fill:#ea178d;}.cls-2{fill:#5c22ff;}</style></defs><title>Power-Symbol</title><g id="Layer_2" data-name="Layer 2"><g id="Layer_1-2" data-name="Layer 1"><path class="cls-1" d="M53.68,75.05H36.54A36.54,36.54,0,0,1,0,38.51V0H26.32A48.73,48.73,0,0,1,75.05,48.73v5A21.37,21.37,0,0,1,53.68,75.05Z"/><path class="cls-1" d="M66.92,82.85h0a8.85,8.85,0,0,1,8.85,8.85v0a29.53,29.53,0,0,1-29.53,29.53h0a8.85,8.85,0,0,1-8.85-8.85v0A29.53,29.53,0,0,1,66.92,82.85Z" transform="translate(-4.92 2.89) rotate(-2.8)"/><path class="cls-2" d="M102.61,75.05h17.15a36.53,36.53,0,0,0,36.53-36.54V0H130A48.73,48.73,0,0,0,81.25,48.73v5A21.36,21.36,0,0,0,102.61,75.05Z"/><path class="cls-2" d="M89.38,82.85h0a29.53,29.53,0,0,1,29.53,29.53v0a8.85,8.85,0,0,1-8.85,8.85h0A29.53,29.53,0,0,1,80.53,91.7v0a8.85,8.85,0,0,1,8.85-8.85Z" transform="translate(194.33 208.84) rotate(-177.2)"/></g></g></svg>