<svg xmlns="http://www.w3.org/2000/svg" viewBox="0 0 416.28 128.18"><defs><style>.cls-1{fill:#1c0d4f;}.cls-2{fill:#ea178d;}.cls-3{fill:#5c22ff;}</style></defs><title>Power-Horizontal Lockup</title><g id="Layer_2" data-name="Layer 2"><g id="Layer_1-2" data-name="Layer 1"><path class="cls-1" d="M35.23,41.56H0v85.65H18.47V95.64h0V80.35h0V56.86H34.13c8.57,0,12.24,5.5,12.24,11.74S42.7,80.35,34.13,80.35H19.86l7.85,15.29h7.52c18.23,0,28.88-11.38,28.88-27S53.46,41.56,35.23,41.56Z"/><path class="cls-1" d="M94.45,64.56c-19,0-32.54,13.46-32.54,31.81s13.58,31.81,32.54,31.81S127,114.73,127,96.37,113.41,64.56,94.45,64.56Zm0,48.94c-9.17,0-15.41-7-15.41-17.13s6.24-17.25,15.41-17.25,15.42,7,15.42,17.25S103.63,113.5,94.45,113.5Z"/><path class="cls-1" d="M199.3,65.54l-10.4,38.05-11-38H162.35l-10.89,38.05-10.39-38H123.94L144,127.21h14.81l11.37-38.42,11.26,38.42h14.93l19.94-61.67Z"/><path class="cls-1" d="M257.66,106.28c-1.34,5.27-5.87,8-12.72,8-8.57,0-14.07-5.39-15.29-14.07h44.28c.13-1.35.25-3.18.25-5.51,0-14.07-8.69-30.1-30.46-30.1-20.93,0-30.47,16-30.47,31.69s10.77,31.93,31.69,31.93c15.17,0,26.92-8.56,29.36-21.9ZM243.72,77c8.19,0,13,5.51,13.45,12.36H229.89C231.36,80.84,236,77,243.72,77Z"/><path class="cls-1" d="M311.25,65.54c-7.46,0-12.11,2.57-15.41,10.28V65.54H278.71v61.67h17.13v-30c0-10.52,3.79-17.5,12.23-17.5h10.16V65.54Z"/><path class="cls-2" d="M345.48,51.78H333.65a25.2,25.2,0,0,1-25.2-25.21V0H326.6a33.63,33.63,0,0,1,33.63,33.62V37A14.74,14.74,0,0,1,345.48,51.78Z"/><path class="cls-2" d="M354.62,57.17h0a6.1,6.1,0,0,1,6.1,6.1v0a20.38,20.38,0,0,1-20.38,20.38h0a6.1,6.1,0,0,1-6.1-6.1v0a20.38,20.38,0,0,1,20.38-20.38Z" transform="translate(-3.03 17.08) rotate(-2.8)"/><path class="cls-3" d="M379.25,51.78h11.83a25.2,25.2,0,0,0,25.2-25.21V0H398.13A33.63,33.63,0,0,0,364.5,33.62V37A14.74,14.74,0,0,0,379.25,51.78Z"/><path class="cls-3" d="M370.11,57.17h0a20.38,20.38,0,0,1,20.38,20.38v0a6.1,6.1,0,0,1-6.1,6.1h0A20.38,20.38,0,0,1,364,63.27v0a6.1,6.1,0,0,1,6.1-6.1Z" transform="translate(750.6 159.18) rotate(-177.2)"/></g></g></svg>