<svg xmlns="http://www.w3.org/2000/svg" viewBox="0 0 189.7 229.19"><defs><style>.cls-1{fill:#ea178d;}.cls-2{fill:#5c22ff;}.cls-3{fill:#fff;}</style></defs><title>Power-Vertical White Full</title><g id="Layer_2" data-name="Layer 2"><g id="Layer_1-2" data-name="Layer 1"><path class="cls-1" d="M64.89,90.59H44.19A44.09,44.09,0,0,1,.09,46.49V0H31.85A58.83,58.83,0,0,1,90.68,58.83v6A25.79,25.79,0,0,1,64.89,90.59Z"/><path class="cls-1" d="M80.86,100h0a10.68,10.68,0,0,1,10.68,10.68v0a35.65,35.65,0,0,1-35.65,35.65h0a10.68,10.68,0,0,1-10.68-10.68v0A35.65,35.65,0,0,1,80.86,100Z" transform="translate(-5.94 3.49) rotate(-2.8)"/><path class="cls-2" d="M124,90.59h20.7a44.1,44.1,0,0,0,44.1-44.1V0H157A58.83,58.83,0,0,0,98.16,58.83v6A25.79,25.79,0,0,0,124,90.59Z"/><path class="cls-2" d="M108,100h0a35.65,35.65,0,0,1,35.65,35.65v0a10.68,10.68,0,0,1-10.68,10.68h0a35.65,35.65,0,0,1-35.65-35.65v0A10.68,10.68,0,0,1,108,100Z" transform="translate(234.75 252.1) rotate(-177.2)"/><path class="cls-3" d="M21,177.55H0v51.06H11V209.79h0v-9.11h0v-14h9.34c5.1,0,7.29,3.28,7.29,7s-2.19,7-7.29,7H11.84l4.68,9.11H21c10.87,0,17.22-6.78,17.22-16.12S31.87,177.55,21,177.55Z"/><path class="cls-3" d="M56.3,191.26c-11.3,0-19.39,8-19.39,19s8.09,19,19.39,19,19.4-8,19.4-19S67.61,191.26,56.3,191.26Zm0,29.18c-5.46,0-9.18-4.16-9.18-10.21s3.72-10.29,9.18-10.29,9.19,4.16,9.19,10.29S61.77,220.44,56.3,220.44Z"/><path class="cls-3" d="M118.81,191.85l-6.2,22.68L106,191.85H96.78l-6.49,22.68-6.2-22.68H73.88l12,36.76h8.83l6.78-22.9,6.71,22.9h8.9l11.88-36.76Z"/><path class="cls-3" d="M153.59,216.13c-.79,3.14-3.5,4.75-7.58,4.75-5.11,0-8.39-3.21-9.11-8.39h26.39c.08-.8.15-1.89.15-3.28,0-8.39-5.18-18-18.16-18-12.47,0-18.16,9.56-18.16,18.89s6.42,19,18.89,19c9,0,16.05-5.1,17.5-13.06Zm-8.31-17.43a7.6,7.6,0,0,1,8,7.37H137C137.92,201,140.69,198.7,145.28,198.7Z"/><path class="cls-3" d="M185.54,191.85c-4.45,0-7.22,1.53-9.19,6.13v-6.13H166.14v36.76h10.21V210.74c0-6.27,2.26-10.43,7.29-10.43h6.06v-8.46Z"/></g></g></svg>